<svg width="1357" height="687" viewBox="0 0 1357 687" fill="none" xmlns="http://www.w3.org/2000/svg">
<g filter="url(#filter0_d_495_325)">
<g filter="url(#filter1_i_495_325)">
<path d="M246.775 165.638C237.491 165.638 229.518 164.055 222.855 160.887C216.302 157.72 210.349 152.969 204.997 146.634L219.742 131.889C223.128 136.367 227.06 139.862 231.538 142.374C236.016 144.777 241.477 145.978 247.921 145.978C253.71 145.978 258.298 144.832 261.683 142.538C265.178 140.244 266.926 137.077 266.926 133.036C266.926 129.54 265.943 126.701 263.977 124.516C262.011 122.332 259.39 120.475 256.113 118.946C252.946 117.417 249.396 116.052 245.464 114.85C241.641 113.539 237.764 112.065 233.832 110.427C230.009 108.788 226.459 106.768 223.183 104.365C220.015 101.853 217.448 98.6853 215.483 94.8625C213.517 90.9305 212.534 86.0155 212.534 80.1175C212.534 73.1273 214.226 67.1747 217.612 62.2597C220.998 57.3448 225.64 53.5766 231.538 50.9553C237.436 48.3339 244.099 47.0233 251.526 47.0233C259.39 47.0233 266.489 48.4978 272.824 51.4468C279.159 54.3958 284.347 58.2185 288.388 62.9151L273.643 77.66C270.257 73.9465 266.762 71.2159 263.158 69.4684C259.663 67.7208 255.676 66.8471 251.198 66.8471C246.065 66.8471 242.023 67.8301 239.074 69.7961C236.125 71.7621 234.651 74.6018 234.651 78.3154C234.651 81.4828 235.634 84.0495 237.6 86.0155C239.566 87.9815 242.133 89.6745 245.3 91.0943C248.577 92.5142 252.126 93.8795 255.949 95.1902C259.881 96.5008 263.759 97.9753 267.581 99.6137C271.513 101.252 275.063 103.382 278.231 106.003C281.507 108.624 284.129 112.01 286.094 116.161C288.06 120.202 289.043 125.226 289.043 131.233C289.043 141.937 285.275 150.347 277.739 156.464C270.203 162.58 259.881 165.638 246.775 165.638ZM299.42 164V84.8687H321.046V164H299.42ZM310.233 72.0897C306.738 72.0897 303.843 70.9429 301.55 68.6492C299.256 66.2463 298.109 63.2974 298.109 59.8022C298.109 56.4164 299.256 53.522 301.55 51.1191C303.843 48.7162 306.738 47.5148 310.233 47.5148C313.837 47.5148 316.732 48.7162 318.916 51.1191C321.21 53.522 322.357 56.4164 322.357 59.8022C322.357 63.2974 321.21 66.2463 318.916 68.6492C316.732 70.9429 313.837 72.0897 310.233 72.0897ZM335.143 164V45.5488H356.605V164H335.143ZM403.801 165.638C396.592 165.638 390.093 163.836 384.305 160.232C378.516 156.628 373.983 151.713 370.707 145.487C367.43 139.261 365.792 132.271 365.792 124.516C365.792 116.652 367.43 109.607 370.707 103.382C373.983 97.1562 378.516 92.2412 384.305 88.6369C390.093 85.0325 396.592 83.2304 403.801 83.2304C409.48 83.2304 414.559 84.3772 419.037 86.6709C423.515 88.9645 427.065 92.1866 429.686 96.337C432.417 100.378 433.891 104.966 434.11 110.099V138.606C433.891 143.849 432.417 148.49 429.686 152.532C427.065 156.573 423.515 159.795 419.037 162.198C414.559 164.491 409.48 165.638 403.801 165.638ZM407.733 145.815C413.74 145.815 418.6 143.849 422.314 139.917C426.027 135.875 427.884 130.687 427.884 124.352C427.884 120.202 427.01 116.543 425.263 113.376C423.625 110.099 421.276 107.587 418.218 105.839C415.269 103.983 411.774 103.054 407.733 103.054C403.801 103.054 400.306 103.983 397.247 105.839C394.298 107.587 391.95 110.099 390.203 113.376C388.564 116.543 387.745 120.202 387.745 124.352C387.745 128.612 388.564 132.38 390.203 135.657C391.95 138.824 394.298 141.336 397.247 143.193C400.306 144.941 403.801 145.815 407.733 145.815ZM426.737 164V142.702L430.178 123.369L426.737 104.365V84.8687H448.036V164H426.737ZM512.568 164L481.931 123.206L512.404 84.8687H537.143L501.427 128.121L502.246 117.635L538.781 164H512.568ZM462.107 164V45.5488H483.569V164H462.107ZM573.163 165.638C565.954 165.638 559.456 163.836 553.667 160.232C547.878 156.628 543.345 151.713 540.069 145.487C536.792 139.261 535.154 132.271 535.154 124.516C535.154 116.652 536.792 109.607 540.069 103.382C543.345 97.1562 547.878 92.2412 553.667 88.6369C559.456 85.0325 565.954 83.2304 573.163 83.2304C578.843 83.2304 583.921 84.3772 588.4 86.6709C592.878 88.9645 596.427 92.1866 599.049 96.337C601.779 100.378 603.254 104.966 603.472 110.099V138.606C603.254 143.849 601.779 148.49 599.049 152.532C596.427 156.573 592.878 159.795 588.4 162.198C583.921 164.491 578.843 165.638 573.163 165.638ZM577.095 145.815C583.102 145.815 587.963 143.849 591.676 139.917C595.39 135.875 597.247 130.687 597.247 124.352C597.247 120.202 596.373 116.543 594.625 113.376C592.987 110.099 590.639 107.587 587.58 105.839C584.631 103.983 581.136 103.054 577.095 103.054C573.163 103.054 569.668 103.983 566.61 105.839C563.661 107.587 561.312 110.099 559.565 113.376C557.927 116.543 557.107 120.202 557.107 124.352C557.107 128.612 557.927 132.38 559.565 135.657C561.312 138.824 563.661 141.336 566.61 143.193C569.668 144.941 573.163 145.815 577.095 145.815ZM596.1 164V142.702L599.54 123.369L596.1 104.365V84.8687H617.398V164H596.1ZM684.715 164V118.618C684.715 113.922 683.241 110.099 680.292 107.15C677.343 104.201 673.52 102.726 668.824 102.726C665.765 102.726 663.035 103.382 660.632 104.692C658.229 106.003 656.318 107.86 654.898 110.263C653.587 112.666 652.932 115.451 652.932 118.618L644.576 114.359C644.576 108.133 645.887 102.726 648.508 98.1392C651.239 93.4426 654.952 89.7837 659.649 87.1624C664.455 84.541 669.861 83.2304 675.868 83.2304C681.657 83.2304 686.845 84.7049 691.433 87.6539C696.02 90.4936 699.624 94.2618 702.246 98.9583C704.867 103.546 706.178 108.515 706.178 113.867V164H684.715ZM631.47 164V84.8687H652.932V164H631.47ZM747.928 164V48.8254H763.656L810.348 123.533H801.338L847.866 48.8254H863.594V164H841.477V86.9985L845.736 88.3092L813.297 140.408H798.225L765.786 88.3092L770.209 86.9985V164H747.928ZM913.663 165.638C906.673 165.638 900.447 164.164 894.986 161.215C889.634 158.266 885.429 154.17 882.371 148.927C879.313 143.685 877.784 137.623 877.784 130.742V84.8687H899.41V130.25C899.41 133.527 899.956 136.367 901.048 138.77C902.14 141.063 903.778 142.811 905.963 144.012C908.147 145.214 910.714 145.815 913.663 145.815C918.141 145.815 921.636 144.449 924.148 141.719C926.66 138.988 927.916 135.165 927.916 130.25V84.8687H949.379V130.742C949.379 137.732 947.849 143.849 944.791 149.091C941.842 154.334 937.637 158.43 932.176 161.379C926.824 164.218 920.653 165.638 913.663 165.638ZM961.555 164V45.5488H983.017V164H961.555ZM1030.21 165.638C1023 165.638 1016.5 163.836 1010.72 160.232C1004.93 156.628 1000.39 151.713 997.118 145.487C993.841 139.261 992.203 132.271 992.203 124.516C992.203 116.652 993.841 109.607 997.118 103.382C1000.39 97.1562 1004.93 92.2412 1010.72 88.6369C1016.5 85.0325 1023 83.2304 1030.21 83.2304C1035.89 83.2304 1040.97 84.3772 1045.45 86.6709C1049.93 88.9645 1053.48 92.1866 1056.1 96.337C1058.83 100.378 1060.3 104.966 1060.52 110.099V138.606C1060.3 143.849 1058.83 148.49 1056.1 152.532C1053.48 156.573 1049.93 159.795 1045.45 162.198C1040.97 164.491 1035.89 165.638 1030.21 165.638ZM1034.14 145.815C1040.15 145.815 1045.01 143.849 1048.73 139.917C1052.44 135.875 1054.3 130.687 1054.3 124.352C1054.3 120.202 1053.42 116.543 1051.67 113.376C1050.04 110.099 1047.69 107.587 1044.63 105.839C1041.68 103.983 1038.19 103.054 1034.14 103.054C1030.21 103.054 1026.72 103.983 1023.66 105.839C1020.71 107.587 1018.36 110.099 1016.61 113.376C1014.98 116.543 1014.16 120.202 1014.16 124.352C1014.16 128.612 1014.98 132.38 1016.61 135.657C1018.36 138.824 1020.71 141.336 1023.66 143.193C1026.72 144.941 1030.21 145.815 1034.14 145.815ZM1053.15 164V142.702L1056.59 123.369L1053.15 104.365V84.8687H1074.45V164H1053.15ZM1088.52 164V84.8687H1110.14V164H1088.52ZM1099.33 72.0897C1095.84 72.0897 1092.94 70.9429 1090.65 68.6492C1088.35 66.2463 1087.21 63.2974 1087.21 59.8022C1087.21 56.4164 1088.35 53.522 1090.65 51.1191C1092.94 48.7162 1095.84 47.5148 1099.33 47.5148C1102.94 47.5148 1105.83 48.7162 1108.01 51.1191C1110.31 53.522 1111.46 56.4164 1111.46 59.8022C1111.46 63.2974 1110.31 66.2463 1108.01 68.6492C1105.83 70.9429 1102.94 72.0897 1099.33 72.0897Z" fill="#FFD7D7"/>
</g>
<g filter="url(#filter2_i_495_325)">
<path d="M190.638 289.484C182.815 289.484 176.072 288.225 170.407 285.707C164.832 283.1 159.707 279.188 155.032 273.973L168.789 260.351C171.846 263.858 175.218 266.6 178.904 268.578C182.68 270.467 187.041 271.411 191.987 271.411C196.482 271.411 199.944 270.601 202.372 268.983C204.89 267.364 206.148 265.117 206.148 262.239C206.148 259.632 205.339 257.519 203.721 255.9C202.102 254.282 199.944 252.888 197.247 251.719C194.639 250.55 191.717 249.426 188.48 248.347C185.333 247.268 182.186 246.055 179.039 244.706C175.892 243.267 172.97 241.514 170.272 239.446C167.665 237.288 165.552 234.635 163.933 231.488C162.315 228.251 161.506 224.205 161.506 219.35C161.506 213.505 162.899 208.47 165.687 204.244C168.564 200.018 172.52 196.826 177.555 194.668C182.591 192.42 188.39 191.296 194.954 191.296C201.608 191.296 207.677 192.465 213.162 194.803C218.736 197.141 223.322 200.333 226.919 204.379L213.162 218.001C210.284 215.034 207.362 212.831 204.395 211.392C201.518 209.954 198.236 209.234 194.549 209.234C190.863 209.234 187.941 209.954 185.783 211.392C183.625 212.741 182.546 214.719 182.546 217.327C182.546 219.754 183.355 221.733 184.973 223.261C186.592 224.7 188.705 225.959 191.312 227.038C194.01 228.117 196.932 229.196 200.079 230.275C203.316 231.354 206.508 232.612 209.655 234.051C212.802 235.49 215.679 237.333 218.287 239.581C220.984 241.739 223.142 244.526 224.761 247.943C226.379 251.27 227.188 255.406 227.188 260.351C227.188 269.433 223.952 276.581 217.478 281.796C211.004 286.921 202.057 289.484 190.638 289.484ZM263.875 289.484C257.851 289.484 252.501 288.27 247.825 285.842C243.239 283.324 239.643 279.908 237.035 275.592C234.428 271.186 233.124 266.151 233.124 260.486V222.452H253.759V260.216C253.759 262.464 254.119 264.397 254.838 266.016C255.648 267.634 256.817 268.893 258.345 269.792C259.874 270.691 261.717 271.141 263.875 271.141C266.932 271.141 269.36 270.197 271.158 268.309C272.956 266.33 273.855 263.633 273.855 260.216V222.452H294.491V260.351C294.491 266.106 293.187 271.186 290.58 275.592C287.972 279.908 284.375 283.324 279.79 285.842C275.204 288.27 269.899 289.484 263.875 289.484ZM303.401 288V222.452H324.036V288H303.401ZM324.036 251.989L315.405 245.245C317.113 237.603 319.99 231.668 324.036 227.442C328.083 223.216 333.702 221.103 340.895 221.103C344.043 221.103 346.785 221.598 349.123 222.587C351.55 223.486 353.663 224.925 355.462 226.903L343.188 242.413C342.289 241.424 341.165 240.66 339.817 240.12C338.468 239.581 336.939 239.311 335.231 239.311C331.814 239.311 329.072 240.39 327.004 242.548C325.025 244.616 324.036 247.763 324.036 251.989ZM377.021 288L349.238 222.452H371.492L390.374 277.075H380.663L399.545 222.452H421.394L393.611 288H377.021ZM455.438 289.484C448.335 289.484 441.996 288.045 436.421 285.168C430.936 282.2 426.62 278.109 423.473 272.894C420.326 267.679 418.753 261.79 418.753 255.226C418.753 248.662 420.281 242.818 423.338 237.693C426.486 232.477 430.712 228.386 436.017 225.419C441.321 222.452 447.301 220.968 453.955 220.968C460.428 220.968 466.138 222.362 471.083 225.149C476.029 227.937 479.895 231.803 482.682 236.748C485.56 241.694 486.998 247.358 486.998 253.742C486.998 254.911 486.908 256.17 486.729 257.519C486.639 258.778 486.414 260.261 486.054 261.97L429.543 262.104V247.943L477.288 247.808L468.386 253.742C468.296 249.966 467.712 246.864 466.633 244.436C465.554 241.919 463.935 240.03 461.777 238.772C459.709 237.423 457.147 236.748 454.089 236.748C450.852 236.748 448.02 237.513 445.592 239.041C443.255 240.48 441.411 242.548 440.063 245.245C438.804 247.943 438.174 251.225 438.174 255.091C438.174 258.957 438.849 262.284 440.198 265.072C441.636 267.769 443.614 269.882 446.132 271.411C448.739 272.849 451.797 273.569 455.303 273.569C458.54 273.569 461.462 273.029 464.07 271.95C466.678 270.781 468.97 269.073 470.948 266.825L482.278 278.154C479.041 281.931 475.13 284.763 470.544 286.651C465.958 288.539 460.923 289.484 455.438 289.484ZM512.09 288.27L485.115 222.452H507.369L524.498 274.648H516.271L533.804 222.452H556.058L528.005 288.27H512.09ZM495.231 315.649L514.922 273.164L528.005 288.27L516.406 315.649H495.231ZM640.975 288L602.402 238.367L639.762 192.78H665.927L623.847 242.278V233.646L667.276 288H640.975ZM583.385 288V192.78H604.56V288H583.385ZM699.252 289.484C692.149 289.484 685.81 288.045 680.235 285.168C674.75 282.2 670.434 278.109 667.287 272.894C664.14 267.679 662.567 261.79 662.567 255.226C662.567 248.662 664.095 242.818 667.152 237.693C670.299 232.477 674.525 228.386 679.83 225.419C685.135 222.452 691.115 220.968 697.768 220.968C704.242 220.968 709.952 222.362 714.897 225.149C719.842 227.937 723.709 231.803 726.496 236.748C729.373 241.694 730.812 247.358 730.812 253.742C730.812 254.911 730.722 256.17 730.542 257.519C730.452 258.778 730.228 260.261 729.868 261.97L673.356 262.104V247.943L721.101 247.808L712.2 253.742C712.11 249.966 711.525 246.864 710.446 244.436C709.367 241.919 707.749 240.03 705.591 238.772C703.523 237.423 700.96 236.748 697.903 236.748C694.666 236.748 691.834 237.513 689.406 239.041C687.068 240.48 685.225 242.548 683.876 245.245C682.618 247.943 681.988 251.225 681.988 255.091C681.988 258.957 682.663 262.284 684.011 265.072C685.45 267.769 687.428 269.882 689.946 271.411C692.553 272.849 695.61 273.569 699.117 273.569C702.354 273.569 705.276 273.029 707.884 271.95C710.491 270.781 712.784 269.073 714.762 266.825L726.092 278.154C722.855 281.931 718.943 284.763 714.358 286.651C709.772 288.539 704.737 289.484 699.252 289.484ZM760.599 289.618C756.733 289.618 752.911 289.124 749.135 288.135C745.448 287.146 741.987 285.752 738.75 283.954C735.603 282.066 732.905 279.908 730.657 277.48L742.391 265.611C744.549 267.949 747.112 269.792 750.079 271.141C753.046 272.4 756.283 273.029 759.79 273.029C762.217 273.029 764.061 272.669 765.319 271.95C766.668 271.231 767.343 270.242 767.343 268.983C767.343 267.364 766.533 266.151 764.915 265.341C763.386 264.442 761.408 263.678 758.98 263.049C756.553 262.329 753.99 261.565 751.293 260.756C748.595 259.947 746.033 258.823 743.605 257.384C741.177 255.945 739.199 253.967 737.671 251.45C736.142 248.842 735.378 245.56 735.378 241.604C735.378 237.378 736.457 233.736 738.615 230.679C740.773 227.532 743.83 225.059 747.786 223.261C751.742 221.463 756.373 220.564 761.678 220.564C767.253 220.564 772.378 221.553 777.053 223.531C781.819 225.419 785.685 228.251 788.652 232.028L776.919 243.897C774.85 241.469 772.513 239.761 769.905 238.772C767.388 237.782 764.915 237.288 762.487 237.288C760.149 237.288 758.396 237.648 757.227 238.367C756.058 238.996 755.474 239.94 755.474 241.199C755.474 242.548 756.238 243.627 757.767 244.436C759.295 245.245 761.273 245.965 763.701 246.594C766.129 247.224 768.691 247.988 771.389 248.887C774.086 249.786 776.649 251 779.076 252.529C781.504 254.057 783.482 256.125 785.011 258.733C786.539 261.25 787.304 264.577 787.304 268.713C787.304 275.097 784.876 280.177 780.021 283.954C775.255 287.73 768.781 289.618 760.599 289.618ZM826.822 289.484C819.719 289.484 813.38 288.045 807.805 285.168C802.321 282.2 798.005 278.109 794.858 272.894C791.711 267.679 790.137 261.79 790.137 255.226C790.137 248.662 791.666 242.818 794.723 237.693C797.87 232.477 802.096 228.386 807.401 225.419C812.706 222.452 818.685 220.968 825.339 220.968C831.813 220.968 837.522 222.362 842.468 225.149C847.413 227.937 851.279 231.803 854.067 236.748C856.944 241.694 858.383 247.358 858.383 253.742C858.383 254.911 858.293 256.17 858.113 257.519C858.023 258.778 857.798 260.261 857.438 261.97L800.927 262.104V247.943L848.672 247.808L839.77 253.742C839.68 249.966 839.096 246.864 838.017 244.436C836.938 241.919 835.319 240.03 833.161 238.772C831.093 237.423 828.531 236.748 825.474 236.748C822.237 236.748 819.404 237.513 816.977 239.041C814.639 240.48 812.796 242.548 811.447 245.245C810.188 247.943 809.559 251.225 809.559 255.091C809.559 258.957 810.233 262.284 811.582 265.072C813.02 267.769 814.999 269.882 817.516 271.411C820.124 272.849 823.181 273.569 826.688 273.569C829.924 273.569 832.847 273.029 835.454 271.95C838.062 270.781 840.355 269.073 842.333 266.825L853.662 278.154C850.425 281.931 846.514 284.763 841.928 286.651C837.342 288.539 832.307 289.484 826.822 289.484ZM907.591 288V250.64C907.591 247.224 906.512 244.481 904.354 242.413C902.286 240.255 899.634 239.176 896.397 239.176C894.149 239.176 892.171 239.671 890.462 240.66C888.754 241.559 887.405 242.908 886.416 244.706C885.427 246.414 884.932 248.392 884.932 250.64L876.975 246.729C876.975 241.604 878.054 237.108 880.212 233.242C882.37 229.375 885.382 226.408 889.248 224.34C893.115 222.182 897.566 221.103 902.601 221.103C907.726 221.103 912.222 222.182 916.088 224.34C919.954 226.408 922.922 229.33 924.99 233.107C927.148 236.793 928.227 241.109 928.227 246.055V288H907.591ZM864.297 288V190.083H884.932V288H864.297ZM964.813 289.349C958.789 289.349 953.394 287.865 948.628 284.898C943.953 281.931 940.221 277.885 937.434 272.759C934.736 267.634 933.388 261.79 933.388 255.226C933.388 248.662 934.736 242.818 937.434 237.693C940.221 232.567 943.953 228.521 948.628 225.554C953.394 222.587 958.789 221.103 964.813 221.103C969.219 221.103 973.175 221.957 976.682 223.666C980.278 225.374 983.201 227.757 985.448 230.814C987.696 233.781 988.955 237.198 989.225 241.064V269.388C988.955 273.254 987.696 276.716 985.448 279.773C983.29 282.74 980.413 285.078 976.817 286.786C973.22 288.495 969.219 289.349 964.813 289.349ZM968.994 270.736C973.4 270.736 976.951 269.298 979.649 266.42C982.346 263.453 983.695 259.722 983.695 255.226C983.695 252.169 983.066 249.471 981.807 247.134C980.638 244.796 978.93 242.998 976.682 241.739C974.524 240.39 972.006 239.716 969.129 239.716C966.252 239.716 963.689 240.39 961.441 241.739C959.283 242.998 957.53 244.796 956.181 247.134C954.922 249.471 954.293 252.169 954.293 255.226C954.293 258.193 954.922 260.846 956.181 263.183C957.44 265.521 959.193 267.364 961.441 268.713C963.689 270.062 966.207 270.736 968.994 270.736ZM982.886 288V270.332L985.988 254.417L982.886 238.502V222.452H1003.12V288H982.886ZM1022.91 288V195.343H1043.54V288H1022.91ZM1008.07 239.985V222.452H1058.38V239.985H1008.07ZM1089.49 289.349C1083.46 289.349 1078.07 287.865 1073.3 284.898C1068.63 281.931 1064.89 277.885 1062.11 272.759C1059.41 267.634 1058.06 261.79 1058.06 255.226C1058.06 248.662 1059.41 242.818 1062.11 237.693C1064.89 232.567 1068.63 228.521 1073.3 225.554C1078.07 222.587 1083.46 221.103 1089.49 221.103C1093.89 221.103 1097.85 221.957 1101.35 223.666C1104.95 225.374 1107.87 227.757 1110.12 230.814C1112.37 233.781 1113.63 237.198 1113.9 241.064V269.388C1113.63 273.254 1112.37 276.716 1110.12 279.773C1107.96 282.74 1105.09 285.078 1101.49 286.786C1097.89 288.495 1093.89 289.349 1089.49 289.349ZM1093.67 270.736C1098.07 270.736 1101.62 269.298 1104.32 266.42C1107.02 263.453 1108.37 259.722 1108.37 255.226C1108.37 252.169 1107.74 249.471 1106.48 247.134C1105.31 244.796 1103.6 242.998 1101.35 241.739C1099.2 240.39 1096.68 239.716 1093.8 239.716C1090.92 239.716 1088.36 240.39 1086.11 241.739C1083.96 242.998 1082.2 244.796 1080.85 247.134C1079.6 249.471 1078.97 252.169 1078.97 255.226C1078.97 258.193 1079.6 260.846 1080.85 263.183C1082.11 265.521 1083.87 267.364 1086.11 268.713C1088.36 270.062 1090.88 270.736 1093.67 270.736ZM1107.56 288V270.332L1110.66 254.417L1107.56 238.502V222.452H1127.79V288H1107.56ZM1181.57 288V250.64C1181.57 247.224 1180.49 244.481 1178.33 242.413C1176.26 240.255 1173.61 239.176 1170.37 239.176C1168.12 239.176 1166.15 239.671 1164.44 240.66C1162.73 241.559 1161.38 242.908 1160.39 244.706C1159.4 246.414 1158.91 248.392 1158.91 250.64L1150.95 246.729C1150.95 241.604 1152.07 237.108 1154.32 233.242C1156.57 229.375 1159.67 226.408 1163.63 224.34C1167.67 222.182 1172.22 221.103 1177.25 221.103C1182.11 221.103 1186.38 222.272 1190.06 224.61C1193.84 226.858 1196.81 229.87 1198.97 233.646C1201.12 237.423 1202.2 241.559 1202.2 246.055V288H1181.57ZM1138.27 288V222.452H1158.91V288H1138.27ZM480.792 436V340.78H495.898L533.392 399.18H525.705L563.064 340.78H578.305V436H557.13V376.521L560.906 377.465L536.494 415.499H522.468L498.191 377.465L501.832 376.521V436H480.792ZM623.001 437.484C615.898 437.484 609.559 436.045 603.984 433.168C598.5 430.2 594.184 426.109 591.037 420.894C587.89 415.679 586.316 409.79 586.316 403.226C586.316 396.662 587.845 390.818 590.902 385.693C594.049 380.477 598.275 376.386 603.58 373.419C608.885 370.452 614.864 368.968 621.518 368.968C627.992 368.968 633.701 370.362 638.647 373.149C643.592 375.937 647.458 379.803 650.246 384.748C653.123 389.694 654.562 395.358 654.562 401.742C654.562 402.911 654.472 404.17 654.292 405.519C654.202 406.778 653.977 408.261 653.618 409.97L597.106 410.104V395.943L644.851 395.808L635.949 401.742C635.859 397.966 635.275 394.864 634.196 392.436C633.117 389.919 631.498 388.03 629.34 386.772C627.272 385.423 624.71 384.748 621.653 384.748C618.416 384.748 615.583 385.513 613.156 387.041C610.818 388.48 608.975 390.548 607.626 393.245C606.367 395.943 605.738 399.225 605.738 403.091C605.738 406.957 606.412 410.284 607.761 413.072C609.2 415.769 611.178 417.882 613.695 419.411C616.303 420.849 619.36 421.569 622.867 421.569C626.104 421.569 629.026 421.029 631.633 419.95C634.241 418.781 636.534 417.073 638.512 414.825L649.841 426.154C646.604 429.931 642.693 432.763 638.107 434.651C633.522 436.539 628.486 437.484 623.001 437.484ZM703.77 436V398.64C703.77 395.224 702.691 392.481 700.533 390.413C698.465 388.255 695.813 387.176 692.576 387.176C690.328 387.176 688.35 387.671 686.641 388.66C684.933 389.559 683.584 390.908 682.595 392.706C681.606 394.414 681.112 396.392 681.112 398.64L673.154 394.729C673.154 389.604 674.278 385.108 676.526 381.242C678.774 377.375 681.876 374.408 685.832 372.34C689.878 370.182 694.419 369.103 699.454 369.103C704.31 369.103 708.581 370.272 712.267 372.61C716.044 374.858 719.011 377.87 721.169 381.646C723.327 385.423 724.406 389.559 724.406 394.055V436H703.77ZM660.476 436V370.452H681.112V436H660.476ZM742.129 436V343.343H762.764V436H742.129ZM727.293 387.985V370.452H777.6V387.985H727.293ZM808.708 437.349C802.684 437.349 797.289 435.865 792.524 432.898C787.848 429.931 784.117 425.885 781.329 420.759C778.632 415.634 777.283 409.79 777.283 403.226C777.283 396.662 778.632 390.818 781.329 385.693C784.117 380.567 787.848 376.521 792.524 373.554C797.289 370.587 802.684 369.103 808.708 369.103C813.114 369.103 817.07 369.957 820.577 371.666C824.174 373.374 827.096 375.757 829.344 378.814C831.592 381.781 832.851 385.198 833.12 389.064V417.388C832.851 421.254 831.592 424.716 829.344 427.773C827.186 430.74 824.309 433.078 820.712 434.786C817.115 436.495 813.114 437.349 808.708 437.349ZM812.889 418.736C817.295 418.736 820.847 417.298 823.544 414.42C826.242 411.453 827.591 407.722 827.591 403.226C827.591 400.169 826.961 397.471 825.702 395.134C824.533 392.796 822.825 390.998 820.577 389.739C818.419 388.39 815.902 387.716 813.024 387.716C810.147 387.716 807.584 388.39 805.337 389.739C803.179 390.998 801.425 392.796 800.077 395.134C798.818 397.471 798.188 400.169 798.188 403.226C798.188 406.193 798.818 408.846 800.077 411.183C801.335 413.521 803.089 415.364 805.337 416.713C807.584 418.062 810.102 418.736 812.889 418.736ZM826.781 436V418.332L829.883 402.417L826.781 386.502V370.452H847.012V436H826.781ZM857.495 436V338.083H878.131V436H857.495Z" fill="#FFD7D7"/>
</g>
</g>
<defs>
<filter id="filter0_d_495_325" x="133.352" y="23.8699" width="1090.53" height="435.293" filterUnits="userSpaceOnUse" color-interpolation-filters="sRGB">
<feFlood flood-opacity="0" result="BackgroundImageFix"/>
<feColorMatrix in="SourceAlpha" type="matrix" values="0 0 0 0 0 0 0 0 0 0 0 0 0 0 0 0 0 0 127 0" result="hardAlpha"/>
<feOffset/>
<feGaussianBlur stdDeviation="10.8395"/>
<feComposite in2="hardAlpha" operator="out"/>
<feColorMatrix type="matrix" values="0 0 0 0 1 0 0 0 0 1 0 0 0 0 1 0 0 0 0.67 0"/>
<feBlend mode="normal" in2="BackgroundImageFix" result="effect1_dropShadow_495_325"/>
<feBlend mode="normal" in="SourceGraphic" in2="effect1_dropShadow_495_325" result="shape"/>
</filter>
<filter id="filter1_i_495_325" x="204.997" y="38.1019" width="906.458" height="127.537" filterUnits="userSpaceOnUse" color-interpolation-filters="sRGB">
<feFlood flood-opacity="0" result="BackgroundImageFix"/>
<feBlend mode="normal" in="SourceGraphic" in2="BackgroundImageFix" result="shape"/>
<feColorMatrix in="SourceAlpha" type="matrix" values="0 0 0 0 0 0 0 0 0 0 0 0 0 0 0 0 0 0 127 0" result="hardAlpha"/>
<feOffset dy="-7.44695"/>
<feGaussianBlur stdDeviation="4.46817"/>
<feComposite in2="hardAlpha" operator="arithmetic" k2="-1" k3="1"/>
<feColorMatrix type="matrix" values="0 0 0 0 1 0 0 0 0 1 0 0 0 0 1 0 0 0 0.38 0"/>
<feBlend mode="normal" in2="shape" result="effect1_innerShadow_495_325"/>
</filter>
<filter id="filter2_i_495_325" x="155.031" y="185.117" width="1047.17" height="252.367" filterUnits="userSpaceOnUse" color-interpolation-filters="sRGB">
<feFlood flood-opacity="0" result="BackgroundImageFix"/>
<feBlend mode="normal" in="SourceGraphic" in2="BackgroundImageFix" result="shape"/>
<feColorMatrix in="SourceAlpha" type="matrix" values="0 0 0 0 0 0 0 0 0 0 0 0 0 0 0 0 0 0 127 0" result="hardAlpha"/>
<feOffset dy="-4.96463"/>
<feGaussianBlur stdDeviation="5.62659"/>
<feComposite in2="hardAlpha" operator="arithmetic" k2="-1" k3="1"/>
<feColorMatrix type="matrix" values="0 0 0 0 1 0 0 0 0 1 0 0 0 0 1 0 0 0 0.61 0"/>
<feBlend mode="normal" in2="shape" result="effect1_innerShadow_495_325"/>
</filter>
</defs>
</svg>
