<svg width="1386" height="435" viewBox="0 0 1386 435" fill="none" xmlns="http://www.w3.org/2000/svg">
<g filter="url(#filter0_d_452_332)">
<g filter="url(#filter1_i_452_332)">
<path d="M274.519 148.427C269.868 148.427 265.419 147.769 261.172 146.455C256.926 145.141 253.033 143.169 249.494 140.54C245.955 137.911 242.871 134.726 240.242 130.985C237.613 127.142 235.54 122.694 234.024 117.638L253.286 110.054C254.701 115.515 257.178 120.065 260.717 123.705C264.256 127.244 268.907 129.013 274.671 129.013C276.794 129.013 278.817 128.76 280.738 128.255C282.76 127.648 284.529 126.839 286.046 125.828C287.664 124.716 288.928 123.351 289.838 121.733C290.748 120.115 291.203 118.245 291.203 116.121C291.203 114.099 290.849 112.279 290.141 110.661C289.433 109.043 288.22 107.527 286.501 106.111C284.883 104.696 282.709 103.33 279.979 102.016C277.35 100.702 274.064 99.3365 270.121 97.921L263.447 95.4943C260.515 94.4831 257.532 93.1181 254.499 91.3992C251.567 89.6803 248.887 87.6075 246.46 85.1808C244.034 82.7541 242.012 79.9229 240.394 76.6873C238.877 73.3506 238.119 69.6094 238.119 65.4638C238.119 61.2171 238.928 57.2737 240.545 53.6336C242.264 49.8925 244.64 46.6569 247.674 43.9268C250.808 41.0957 254.499 38.9218 258.746 37.4051C263.094 35.7873 267.896 34.9784 273.154 34.9784C278.614 34.9784 283.316 35.7367 287.259 37.2534C291.304 38.669 294.691 40.5396 297.421 42.8651C300.252 45.0896 302.527 47.5669 304.246 50.2969C305.965 53.027 307.229 55.6053 308.038 58.032L289.989 65.6155C288.978 62.5821 287.108 59.8521 284.378 57.4254C281.749 54.9987 278.109 53.7853 273.458 53.7853C269.009 53.7853 265.318 54.847 262.386 56.9704C259.453 58.9926 257.987 61.6721 257.987 65.0088C257.987 68.2444 259.403 71.025 262.234 73.3506C265.065 75.5751 269.565 77.749 275.733 79.8724L282.558 82.1474C286.906 83.6641 290.849 85.4336 294.388 87.4558C298.028 89.3769 301.112 91.7025 303.64 94.4326C306.269 97.1626 308.24 100.297 309.555 103.836C310.97 107.274 311.678 111.268 311.678 115.818C311.678 121.48 310.515 126.384 308.19 130.53C305.965 134.574 303.084 137.911 299.545 140.54C296.006 143.169 292.012 145.141 287.563 146.455C283.114 147.769 278.766 148.427 274.519 148.427ZM332.638 60.9137C330.919 60.9137 329.251 60.6104 327.633 60.0037C326.116 59.2959 324.751 58.3859 323.538 57.2737C322.426 56.0603 321.516 54.6953 320.808 53.1786C320.201 51.6619 319.898 49.9936 319.898 48.1736C319.898 46.3535 320.201 44.6852 320.808 43.1685C321.516 41.6518 322.426 40.3373 323.538 39.2251C324.751 38.0117 326.116 37.1017 327.633 36.495C329.251 35.7873 330.919 35.4334 332.638 35.4334C336.177 35.4334 339.21 36.6973 341.738 39.2251C344.266 41.6518 345.53 44.6346 345.53 48.1736C345.53 51.7125 344.266 54.7459 341.738 57.2737C339.21 59.7004 336.177 60.9137 332.638 60.9137ZM322.78 146V71.6822H342.648V146H322.78ZM356.266 146V37.4051H376.135V146H356.266ZM433.66 138.113H432.447C430.121 140.944 427.29 143.371 423.953 145.393C420.718 147.416 416.522 148.427 411.365 148.427C407.523 148.427 403.883 147.769 400.445 146.455C397.108 145.242 394.176 143.523 391.648 141.298C389.12 139.074 387.148 136.394 385.733 133.26C384.317 130.125 383.609 126.687 383.609 122.946C383.609 119.104 384.368 115.666 385.884 112.633C387.401 109.498 389.525 106.819 392.255 104.594C394.985 102.37 398.17 100.702 401.81 99.5893C405.551 98.376 409.595 97.7693 413.943 97.7693C418.797 97.7693 422.791 98.1737 425.925 98.9826C429.06 99.6904 431.638 100.449 433.66 101.258V98.9826C433.66 95.0392 432.093 91.8036 428.958 89.2758C425.824 86.6469 421.931 85.3324 417.28 85.3324C410.404 85.3324 404.59 88.2141 399.838 93.9776L385.429 84.1191C393.316 74.21 404.085 69.2555 417.735 69.2555C429.262 69.2555 438.059 71.9856 444.125 77.4457C450.192 82.8046 453.225 90.7925 453.225 101.409V146H433.66V138.113ZM433.66 115.818C431.335 114.706 428.908 113.846 426.38 113.24C423.953 112.532 421.274 112.178 418.342 112.178C413.589 112.178 409.899 113.24 407.27 115.363C404.742 117.385 403.478 119.913 403.478 122.946C403.478 125.98 404.691 128.406 407.118 130.226C409.646 132.046 412.528 132.956 415.763 132.956C418.392 132.956 420.819 132.501 423.043 131.591C425.268 130.58 427.138 129.316 428.655 127.8C430.273 126.182 431.486 124.362 432.295 122.34C433.205 120.216 433.66 118.042 433.66 115.818ZM464.473 37.4051H484.341V67.8905L483.128 81.389H484.341C486.465 77.8501 489.498 74.9684 493.441 72.7439C497.486 70.4183 501.985 69.2555 506.94 69.2555C516.546 69.2555 523.624 72.0867 528.174 77.749C532.825 83.4113 535.15 91.1464 535.15 100.954V146H515.282V103.381C515.282 98.2243 514.068 94.3315 511.642 91.7025C509.215 88.9725 505.828 87.6075 501.48 87.6075C498.75 87.6075 496.323 88.2141 494.2 89.4275C492.076 90.5397 490.256 92.107 488.74 94.1292C487.324 96.1515 486.212 98.5276 485.403 101.258C484.695 103.887 484.341 106.718 484.341 109.751V146H464.473V37.4051ZM547.014 37.4051H566.882V96.5559H567.792L592.666 71.6822H617.236V72.8956L589.633 99.741L619.511 144.787V146H596.003L575.679 113.391L566.882 122.036V146H547.014V37.4051ZM667.213 138.113H665.999C663.674 140.944 660.842 143.371 657.506 145.393C654.27 147.416 650.074 148.427 644.917 148.427C641.075 148.427 637.435 147.769 633.997 146.455C630.66 145.242 627.728 143.523 625.2 141.298C622.672 139.074 620.701 136.394 619.285 133.26C617.87 130.125 617.162 126.687 617.162 122.946C617.162 119.104 617.92 115.666 619.437 112.633C620.953 109.498 623.077 106.819 625.807 104.594C628.537 102.37 631.722 100.702 635.362 99.5893C639.103 98.376 643.148 97.7693 647.496 97.7693C652.349 97.7693 656.343 98.1737 659.477 98.9826C662.612 99.6904 665.19 100.449 667.213 101.258V98.9826C667.213 95.0392 665.645 91.8036 662.511 89.2758C659.376 86.6469 655.483 85.3324 650.832 85.3324C643.957 85.3324 638.143 88.2141 633.39 93.9776L618.982 84.1191C626.869 74.21 637.637 69.2555 651.287 69.2555C662.814 69.2555 671.611 71.9856 677.678 77.4457C683.744 82.8046 686.778 90.7925 686.778 101.409V146H667.213V138.113ZM667.213 115.818C664.887 114.706 662.46 113.846 659.932 113.24C657.506 112.532 654.826 112.178 651.894 112.178C647.142 112.178 643.451 113.24 640.822 115.363C638.294 117.385 637.03 119.913 637.03 122.946C637.03 125.98 638.244 128.406 640.67 130.226C643.198 132.046 646.08 132.956 649.316 132.956C651.945 132.956 654.371 132.501 656.596 131.591C658.82 130.58 660.691 129.316 662.207 127.8C663.825 126.182 665.039 124.362 665.847 122.34C666.757 120.216 667.213 118.042 667.213 115.818ZM716.68 81.389H717.894C720.219 77.6479 723.354 74.7156 727.297 72.5922C731.241 70.3678 735.74 69.2555 740.796 69.2555C745.447 69.2555 749.542 70.0139 753.081 71.5306C756.62 73.0473 759.501 75.2212 761.726 78.0523C764.052 80.7824 765.77 84.1191 766.883 88.0625C768.096 91.9048 768.703 96.202 768.703 100.954V146H748.834V103.381C748.834 98.0221 747.621 94.0787 745.194 91.5509C742.868 88.9219 739.431 87.6075 734.881 87.6075C732.151 87.6075 729.724 88.2141 727.6 89.4275C725.578 90.5397 723.809 92.107 722.292 94.1292C720.876 96.0504 719.764 98.376 718.955 101.106C718.248 103.735 717.894 106.566 717.894 109.599V146H698.025V71.6822H716.68V81.389ZM811.768 37.4051H831.94L865.156 94.8876H866.369L899.585 37.4051H919.908V146H899.585V92.4609L900.798 74.2606H899.585L871.981 122.946H859.696L831.94 74.2606H830.727L831.94 92.4609V146H811.768V37.4051ZM984.77 136.293H983.557C981.231 140.034 978.097 143.017 974.154 145.242C970.21 147.365 965.711 148.427 960.655 148.427C951.252 148.427 944.224 145.545 939.573 139.782C935.023 134.018 932.748 126.334 932.748 116.728V71.6822H952.617V114.301C952.617 119.66 953.779 123.654 956.105 126.283C958.532 128.811 962.02 130.075 966.57 130.075C969.3 130.075 971.676 129.519 973.699 128.406C975.822 127.193 977.591 125.626 979.007 123.705C980.524 121.682 981.636 119.357 982.344 116.728C983.153 113.998 983.557 111.116 983.557 108.083V71.6822H1003.43V146H984.77V136.293ZM1015.9 146V37.4051H1035.76V146H1015.9ZM1093.29 138.113H1092.08C1089.75 140.944 1086.92 143.371 1083.58 145.393C1080.35 147.416 1076.15 148.427 1070.99 148.427C1067.15 148.427 1063.51 147.769 1060.07 146.455C1056.74 145.242 1053.81 143.523 1051.28 141.298C1048.75 139.074 1046.78 136.394 1045.36 133.26C1043.95 130.125 1043.24 126.687 1043.24 122.946C1043.24 119.104 1044 115.666 1045.51 112.633C1047.03 109.498 1049.15 106.819 1051.88 104.594C1054.61 102.37 1057.8 100.702 1061.44 99.5893C1065.18 98.376 1069.22 97.7693 1073.57 97.7693C1078.43 97.7693 1082.42 98.1737 1085.55 98.9826C1088.69 99.6904 1091.27 100.449 1093.29 101.258V98.9826C1093.29 95.0392 1091.72 91.8036 1088.59 89.2758C1085.45 86.6469 1081.56 85.3324 1076.91 85.3324C1070.03 85.3324 1064.22 88.2141 1059.47 93.9776L1045.06 84.1191C1052.95 74.21 1063.71 69.2555 1077.36 69.2555C1088.89 69.2555 1097.69 71.9856 1103.75 77.4457C1109.82 82.8046 1112.85 90.7925 1112.85 101.409V146H1093.29V138.113ZM1093.29 115.818C1090.96 114.706 1088.54 113.846 1086.01 113.24C1083.58 112.532 1080.9 112.178 1077.97 112.178C1073.22 112.178 1069.53 113.24 1066.9 115.363C1064.37 117.385 1063.11 119.913 1063.11 122.946C1063.11 125.98 1064.32 128.406 1066.75 130.226C1069.28 132.046 1072.16 132.956 1075.39 132.956C1078.02 132.956 1080.45 132.501 1082.67 131.591C1084.9 130.58 1086.77 129.316 1088.28 127.8C1089.9 126.182 1091.12 124.362 1091.92 122.34C1092.83 120.216 1093.29 118.042 1093.29 115.818ZM1135.17 60.9137C1133.46 60.9137 1131.79 60.6104 1130.17 60.0037C1128.65 59.2959 1127.29 58.3859 1126.07 57.2737C1124.96 56.0603 1124.05 54.6953 1123.34 53.1786C1122.74 51.6619 1122.43 49.9936 1122.43 48.1736C1122.43 46.3535 1122.74 44.6852 1123.34 43.1685C1124.05 41.6518 1124.96 40.3373 1126.07 39.2251C1127.29 38.0117 1128.65 37.1017 1130.17 36.495C1131.79 35.7873 1133.46 35.4334 1135.17 35.4334C1138.71 35.4334 1141.75 36.6973 1144.27 39.2251C1146.8 41.6518 1148.07 44.6346 1148.07 48.1736C1148.07 51.7125 1146.8 54.7459 1144.27 57.2737C1141.75 59.7004 1138.71 60.9137 1135.17 60.9137ZM1125.32 146V71.6822H1145.18V146H1125.32Z" fill="url(#paint0_linear_452_332)"/>
</g>
<g filter="url(#filter2_i_452_332)">
<path d="M406.57 335.905C400.782 335.905 395.245 335.087 389.96 333.451C384.676 331.815 379.831 329.362 375.427 326.09C371.023 322.818 367.185 318.855 363.914 314.199C360.642 309.418 358.063 303.881 356.175 297.59L380.146 288.153C381.907 294.947 384.99 300.61 389.394 305.139C393.798 309.543 399.586 311.745 406.759 311.745C409.401 311.745 411.918 311.431 414.308 310.802C416.825 310.047 419.027 309.04 420.914 307.782C422.928 306.398 424.501 304.699 425.633 302.686C426.765 300.673 427.332 298.345 427.332 295.702C427.332 293.186 426.891 290.921 426.01 288.908C425.13 286.894 423.62 285.007 421.481 283.245C419.467 281.484 416.762 279.785 413.365 278.149C410.093 276.513 406.004 274.815 401.096 273.053L392.792 270.033C389.143 268.775 385.431 267.076 381.656 264.937C378.007 262.798 374.672 260.219 371.652 257.199C368.632 254.179 366.116 250.656 364.103 246.629C362.215 242.477 361.271 237.821 361.271 232.662C361.271 227.377 362.278 222.47 364.291 217.94C366.43 213.284 369.387 209.258 373.162 205.86C377.063 202.337 381.656 199.632 386.941 197.744C392.351 195.731 398.328 194.725 404.871 194.725C411.666 194.725 417.517 195.668 422.424 197.556C427.457 199.317 431.673 201.645 435.07 204.539C438.593 207.307 441.425 210.39 443.564 213.788C445.703 217.185 447.276 220.394 448.282 223.414L425.822 232.851C424.563 229.076 422.236 225.678 418.838 222.659C415.567 219.639 411.037 218.129 405.249 218.129C399.712 218.129 395.119 219.45 391.47 222.092C387.821 224.609 385.997 227.943 385.997 232.096C385.997 236.122 387.758 239.583 391.282 242.477C394.805 245.245 400.404 247.95 408.08 250.593L416.573 253.424C421.984 255.311 426.891 257.513 431.295 260.03C435.825 262.421 439.663 265.315 442.809 268.712C446.08 272.109 448.534 276.01 450.17 280.414C451.931 284.692 452.812 289.663 452.812 295.325C452.812 302.371 451.365 308.474 448.471 313.633C445.703 318.666 442.117 322.818 437.713 326.09C433.309 329.362 428.338 331.815 422.802 333.451C417.265 335.087 411.855 335.905 406.57 335.905ZM517.588 335.905C509.661 335.905 502.426 334.646 495.882 332.13C489.465 329.487 483.992 325.713 479.462 320.805C474.932 315.898 471.409 309.984 468.892 303.063C466.376 296.017 465.117 288.027 465.117 279.093V197.744H490.598V280.603C490.598 285.133 491.164 289.285 492.296 293.06C493.429 296.835 495.127 300.106 497.392 302.875C499.657 305.643 502.488 307.845 505.886 309.481C509.283 310.991 513.184 311.745 517.588 311.745C522.118 311.745 526.081 310.991 529.479 309.481C532.876 307.845 535.707 305.643 537.972 302.875C540.237 300.106 541.936 296.835 543.068 293.06C544.201 289.285 544.767 285.133 544.767 280.603V197.744H570.247V279.093C570.247 287.523 568.989 295.262 566.472 302.308C564.082 309.229 560.559 315.206 555.903 320.239C551.373 325.146 545.837 328.984 539.293 331.752C532.876 334.521 525.641 335.905 517.588 335.905ZM588.734 197.744H637.996C644.791 197.744 650.956 198.814 656.493 200.953C662.029 203.092 666.748 206.049 670.649 209.824C674.675 213.599 677.758 218.129 679.897 223.414C682.036 228.573 683.106 234.235 683.106 240.4C683.106 244.93 682.351 249.208 680.841 253.235C679.331 257.136 677.255 260.722 674.612 263.993C671.97 267.139 668.887 269.97 665.364 272.487C661.841 274.878 658.129 276.765 654.228 278.149L654.039 279.47L690.278 331.375V332.885H661.023L626.105 282.113H614.214V332.885H588.734V197.744ZM637.807 258.709C643.595 258.709 648.314 256.947 651.963 253.424C655.738 249.901 657.625 245.434 657.625 240.023C657.625 237.632 657.185 235.304 656.304 233.039C655.549 230.775 654.354 228.761 652.718 227C651.082 225.238 649.006 223.854 646.489 222.847C644.099 221.715 641.33 221.149 638.185 221.149H614.214V258.709H637.807ZM688.79 197.744H716.347L744.281 279.093L749.188 296.457H750.698L755.983 279.093L785.049 197.744H812.606L763.344 332.885H736.542L688.79 197.744ZM848.219 221.904V253.235H902.389V277.394H848.219V308.726H908.428V332.885H822.739V197.744H908.428V221.904H848.219ZM960.357 270.033L914.869 197.744H945.257L972.247 242.477H973.757L999.804 197.744H1030.57L985.837 270.033V332.885H960.357V270.033Z" fill="#8B5DFF"/>
</g>
</g>
<defs>
<filter id="filter0_d_452_332" x="208.794" y="9.74916" width="964.501" height="351.384" filterUnits="userSpaceOnUse" color-interpolation-filters="sRGB">
<feFlood flood-opacity="0" result="BackgroundImageFix"/>
<feColorMatrix in="SourceAlpha" type="matrix" values="0 0 0 0 0 0 0 0 0 0 0 0 0 0 0 0 0 0 127 0" result="hardAlpha"/>
<feOffset/>
<feGaussianBlur stdDeviation="12.6147"/>
<feComposite in2="hardAlpha" operator="out"/>
<feColorMatrix type="matrix" values="0 0 0 0 1 0 0 0 0 1 0 0 0 0 1 0 0 0 1 0"/>
<feBlend mode="normal" in2="BackgroundImageFix" result="effect1_dropShadow_452_332"/>
<feBlend mode="normal" in="SourceGraphic" in2="effect1_dropShadow_452_332" result="shape"/>
</filter>
<filter id="filter1_i_452_332" x="234.023" y="32.2822" width="914.042" height="116.144" filterUnits="userSpaceOnUse" color-interpolation-filters="sRGB">
<feFlood flood-opacity="0" result="BackgroundImageFix"/>
<feBlend mode="normal" in="SourceGraphic" in2="BackgroundImageFix" result="shape"/>
<feColorMatrix in="SourceAlpha" type="matrix" values="0 0 0 0 0 0 0 0 0 0 0 0 0 0 0 0 0 0 127 0" result="hardAlpha"/>
<feOffset dy="-2.69634"/>
<feGaussianBlur stdDeviation="6.74084"/>
<feComposite in2="hardAlpha" operator="arithmetic" k2="-1" k3="1"/>
<feColorMatrix type="matrix" values="0 0 0 0 1 0 0 0 0 1 0 0 0 0 1 0 0 0 0.69 0"/>
<feBlend mode="normal" in2="shape" result="effect1_innerShadow_452_332"/>
</filter>
<filter id="filter2_i_452_332" x="356.176" y="193.039" width="674.394" height="142.865" filterUnits="userSpaceOnUse" color-interpolation-filters="sRGB">
<feFlood flood-opacity="0" result="BackgroundImageFix"/>
<feBlend mode="normal" in="SourceGraphic" in2="BackgroundImageFix" result="shape"/>
<feColorMatrix in="SourceAlpha" type="matrix" values="0 0 0 0 0 0 0 0 0 0 0 0 0 0 0 0 0 0 127 0" result="hardAlpha"/>
<feOffset dy="-1.68521"/>
<feGaussianBlur stdDeviation="9.77422"/>
<feComposite in2="hardAlpha" operator="arithmetic" k2="-1" k3="1"/>
<feColorMatrix type="matrix" values="0 0 0 0 1 0 0 0 0 1 0 0 0 0 1 0 0 0 1 0"/>
<feBlend mode="normal" in2="shape" result="effect1_innerShadow_452_332"/>
</filter>
<linearGradient id="paint0_linear_452_332" x1="-23.5929" y1="-23.5929" x2="522.415" y2="247.726" gradientUnits="userSpaceOnUse">
<stop stop-color="#8B5DFF"/>
<stop offset="1" stop-color="#DE7C7D"/>
</linearGradient>
</defs>
</svg>
