<svg width="999" height="1109" viewBox="0 0 999 1109" fill="none" xmlns="http://www.w3.org/2000/svg">
<g filter="url(#filter0_d_457_398)">
<path d="M991 3H12.2087C-4.59347 259.519 178.538 388.069 342 441C505.461 493.931 646.326 583.52 633 762.5C619.674 941.48 899.505 1100.6 991 1096.96V3Z" fill="#E0CCF5" fill-opacity="0.27" shape-rendering="crispEdges"/>
</g>
<g filter="url(#filter1_d_457_398)">
<path d="M991 3H153.218C136.288 259.529 298.66 323.929 463.373 376.862C628.085 429.794 744.628 511.976 731.2 690.964C717.772 869.951 898.805 907.41 991 903.766V3Z" fill="#E0CCF5" fill-opacity="0.27" shape-rendering="crispEdges"/>
</g>
<g filter="url(#filter2_d_457_398)">
<path d="M991.006 5H292.787C278.677 218.821 414 272.5 551.274 316.62C688.547 360.741 785.676 429.241 774.485 578.43C763.294 727.619 914.169 758.842 991.006 755.805V5Z" fill="#E0CCF5" fill-opacity="0.27" shape-rendering="crispEdges"/>
</g>
<g filter="url(#filter3_d_457_398)">
<path d="M995.5 5H421.5C409.9 181 558.333 249.333 634 261.5C709.666 273.667 826.7 354.2 817.5 477C808.3 599.8 932.333 625.5 995.5 623V5Z" fill="#E0CCF5" fill-opacity="0.27" shape-rendering="crispEdges"/>
</g>
<defs>
<filter id="filter0_d_457_398" x="0.132812" y="0" width="993.867" height="1108.02" filterUnits="userSpaceOnUse" color-interpolation-filters="sRGB">
<feFlood flood-opacity="0" result="BackgroundImageFix"/>
<feColorMatrix in="SourceAlpha" type="matrix" values="0 0 0 0 0 0 0 0 0 0 0 0 0 0 0 0 0 0 127 0" result="hardAlpha"/>
<feOffset dx="-4" dy="4"/>
<feGaussianBlur stdDeviation="3.5"/>
<feComposite in2="hardAlpha" operator="out"/>
<feColorMatrix type="matrix" values="0 0 0 0 0 0 0 0 0 0 0 0 0 0 0 0 0 0 0.25 0"/>
<feBlend mode="normal" in2="BackgroundImageFix" result="effect1_dropShadow_457_398"/>
<feBlend mode="normal" in="SourceGraphic" in2="effect1_dropShadow_457_398" result="shape"/>
</filter>
<filter id="filter1_d_457_398" x="141" y="0" width="853" height="915" filterUnits="userSpaceOnUse" color-interpolation-filters="sRGB">
<feFlood flood-opacity="0" result="BackgroundImageFix"/>
<feColorMatrix in="SourceAlpha" type="matrix" values="0 0 0 0 0 0 0 0 0 0 0 0 0 0 0 0 0 0 127 0" result="hardAlpha"/>
<feOffset dx="-4" dy="4"/>
<feGaussianBlur stdDeviation="3.5"/>
<feComposite in2="hardAlpha" operator="out"/>
<feColorMatrix type="matrix" values="0 0 0 0 0 0 0 0 0 0 0 0 0 0 0 0 0 0 0.25 0"/>
<feBlend mode="normal" in2="BackgroundImageFix" result="effect1_dropShadow_457_398"/>
<feBlend mode="normal" in="SourceGraphic" in2="effect1_dropShadow_457_398" result="shape"/>
</filter>
<filter id="filter2_d_457_398" x="280.771" y="2" width="713.234" height="765" filterUnits="userSpaceOnUse" color-interpolation-filters="sRGB">
<feFlood flood-opacity="0" result="BackgroundImageFix"/>
<feColorMatrix in="SourceAlpha" type="matrix" values="0 0 0 0 0 0 0 0 0 0 0 0 0 0 0 0 0 0 127 0" result="hardAlpha"/>
<feOffset dx="-4" dy="4"/>
<feGaussianBlur stdDeviation="3.5"/>
<feComposite in2="hardAlpha" operator="out"/>
<feColorMatrix type="matrix" values="0 0 0 0 0 0 0 0 0 0 0 0 0 0 0 0 0 0 0.25 0"/>
<feBlend mode="normal" in2="BackgroundImageFix" result="effect1_dropShadow_457_398"/>
<feBlend mode="normal" in="SourceGraphic" in2="effect1_dropShadow_457_398" result="shape"/>
</filter>
<filter id="filter3_d_457_398" x="409.857" y="2" width="588.643" height="632.16" filterUnits="userSpaceOnUse" color-interpolation-filters="sRGB">
<feFlood flood-opacity="0" result="BackgroundImageFix"/>
<feColorMatrix in="SourceAlpha" type="matrix" values="0 0 0 0 0 0 0 0 0 0 0 0 0 0 0 0 0 0 127 0" result="hardAlpha"/>
<feOffset dx="-4" dy="4"/>
<feGaussianBlur stdDeviation="3.5"/>
<feComposite in2="hardAlpha" operator="out"/>
<feColorMatrix type="matrix" values="0 0 0 0 0 0 0 0 0 0 0 0 0 0 0 0 0 0 0.25 0"/>
<feBlend mode="normal" in2="BackgroundImageFix" result="effect1_dropShadow_457_398"/>
<feBlend mode="normal" in="SourceGraphic" in2="effect1_dropShadow_457_398" result="shape"/>
</filter>
</defs>
</svg>
