<svg width="417" height="116" viewBox="0 0 417 116" fill="none" xmlns="http://www.w3.org/2000/svg">
<g filter="url(#filter0_d_108_177)">
<g filter="url(#filter1_i_108_177)">
<path d="M10.5428 18.8802H30.6353C33.4067 18.8802 35.9215 19.3164 38.1797 20.1889C40.4378 21.0614 42.3624 22.2674 43.9534 23.8071C45.5957 25.3468 46.8531 27.1944 47.7255 29.3499C48.598 31.4541 49.0343 33.7636 49.0343 36.2783C49.0343 38.1259 48.7263 39.8709 48.1105 41.5132C47.4946 43.1042 46.6478 44.5668 45.57 45.9012C44.4923 47.1843 43.2349 48.339 41.7979 49.3654C40.3608 50.3406 38.8468 51.1104 37.2559 51.6749L37.1789 52.2138L51.9596 73.3841V74H40.0272L25.7854 53.2916H20.9355V74H10.5428V18.8802ZM30.5583 43.7457C32.9192 43.7457 34.8437 43.0272 36.3321 41.5902C37.8717 40.1532 38.6416 38.3312 38.6416 36.1244C38.6416 35.1493 38.4619 34.1998 38.1027 33.276C37.7947 32.3522 37.3072 31.5311 36.64 30.8126C35.9728 30.094 35.126 29.5295 34.0996 29.1189C33.1244 28.657 31.9954 28.4261 30.7123 28.4261H20.9355V43.7457H30.5583ZM66.3644 28.734V41.5132H88.4586V51.367H66.3644V64.1462H90.922V74H55.9717V18.8802H90.922V28.734H66.3644ZM115.027 75.2317C112.666 75.2317 110.408 74.8981 108.253 74.2309C106.097 73.5638 104.121 72.563 102.325 71.2286C100.529 69.8942 98.9635 68.2776 97.6292 66.3787C96.2948 64.4285 95.2427 62.1703 94.4729 59.6042L104.25 55.755C104.968 58.5264 106.226 60.8359 108.022 62.6835C109.818 64.4798 112.179 65.3779 115.104 65.3779C116.182 65.3779 117.208 65.2496 118.184 64.993C119.21 64.6851 120.108 64.2745 120.878 63.7613C121.699 63.1967 122.341 62.5039 122.803 61.6827C123.264 60.8616 123.495 59.9121 123.495 58.8344C123.495 57.8079 123.316 56.8841 122.957 56.063C122.597 55.2418 121.981 54.472 121.109 53.7535C120.288 53.035 119.184 52.3421 117.799 51.6749C116.464 51.0078 114.796 50.3149 112.795 49.5964L109.408 48.3647C107.919 47.8515 106.405 47.1586 104.866 46.2861C103.377 45.4137 102.017 44.3616 100.785 43.1298C99.5537 41.8981 98.5273 40.4611 97.7061 38.8188C96.9363 37.1252 96.5514 35.2262 96.5514 33.122C96.5514 30.9665 96.962 28.965 97.7831 27.1174C98.6556 25.2185 99.8617 23.5762 101.401 22.1905C102.992 20.7534 104.866 19.65 107.021 18.8802C109.228 18.059 111.666 17.6485 114.334 17.6485C117.106 17.6485 119.492 18.0334 121.494 18.8032C123.547 19.5217 125.266 20.4712 126.652 21.6516C128.089 22.7807 129.243 24.0381 130.116 25.4237C130.988 26.8094 131.63 28.1182 132.041 29.3499L122.88 33.199C122.366 31.6594 121.417 30.2737 120.031 29.0419C118.697 27.8102 116.849 27.1944 114.488 27.1944C112.23 27.1944 110.357 27.7332 108.869 28.811C107.38 29.8374 106.636 31.1975 106.636 32.8911C106.636 34.5334 107.355 35.9448 108.792 37.1252C110.229 38.2542 112.513 39.3577 115.643 40.4354L119.107 41.5902C121.314 42.36 123.316 43.2581 125.112 44.2846C126.96 45.2597 128.525 46.4401 129.808 47.8258C131.142 49.2115 132.143 50.8025 132.81 52.5987C133.529 54.3437 133.888 56.3709 133.888 58.6804C133.888 61.5544 133.298 64.0435 132.118 66.1477C130.988 68.2006 129.526 69.8942 127.729 71.2286C125.933 72.563 123.906 73.5638 121.648 74.2309C119.39 74.8981 117.183 75.2317 115.027 75.2317ZM160.308 75.2317C157.075 75.2317 154.124 74.7185 151.455 73.6921C148.838 72.6143 146.605 71.0746 144.758 69.0731C142.91 67.0715 141.473 64.6594 140.447 61.8367C139.42 58.9627 138.907 55.7037 138.907 52.0599V18.8802H149.3V52.6757C149.3 54.5233 149.531 56.2169 149.993 57.7566C150.454 59.2963 151.147 60.6306 152.071 61.7597C152.995 62.8888 154.15 63.7869 155.535 64.4541C156.921 65.07 158.512 65.3779 160.308 65.3779C162.156 65.3779 163.773 65.07 165.158 64.4541C166.544 63.7869 167.699 62.8888 168.622 61.7597C169.546 60.6306 170.239 59.2963 170.701 57.7566C171.163 56.2169 171.394 54.5233 171.394 52.6757V18.8802H181.787V52.0599C181.787 55.4984 181.273 58.6547 180.247 61.5288C179.272 64.3515 177.835 66.7893 175.936 68.8421C174.088 70.8437 171.83 72.409 169.161 73.5381C166.544 74.6672 163.593 75.2317 160.308 75.2317ZM189.327 18.8802H199.719V64.1462H223.045V74H189.327V18.8802ZM234.053 74V28.734H218.656V18.8802H259.842V28.734H244.445V74H234.053Z" fill="#FF9696"/>
</g>
</g>
<defs>
<filter id="filter0_d_108_177" x="0.701153" y="7.80687" width="268.982" height="77.2665" filterUnits="userSpaceOnUse" color-interpolation-filters="sRGB">
<feFlood flood-opacity="0" result="BackgroundImageFix"/>
<feColorMatrix in="SourceAlpha" type="matrix" values="0 0 0 0 0 0 0 0 0 0 0 0 0 0 0 0 0 0 127 0" result="hardAlpha"/>
<feOffset/>
<feGaussianBlur stdDeviation="4.92079"/>
<feComposite in2="hardAlpha" operator="out"/>
<feColorMatrix type="matrix" values="0 0 0 0 1 0 0 0 0 0.882353 0 0 0 0 1 0 0 0 1 0"/>
<feBlend mode="normal" in2="BackgroundImageFix" result="effect1_dropShadow_108_177"/>
<feBlend mode="normal" in="SourceGraphic" in2="effect1_dropShadow_108_177" result="shape"/>
</filter>
<filter id="filter1_i_108_177" x="10.5427" y="16.9611" width="249.299" height="58.2707" filterUnits="userSpaceOnUse" color-interpolation-filters="sRGB">
<feFlood flood-opacity="0" result="BackgroundImageFix"/>
<feBlend mode="normal" in="SourceGraphic" in2="BackgroundImageFix" result="shape"/>
<feColorMatrix in="SourceAlpha" type="matrix" values="0 0 0 0 0 0 0 0 0 0 0 0 0 0 0 0 0 0 127 0" result="hardAlpha"/>
<feOffset dy="-0.687348"/>
<feGaussianBlur stdDeviation="3.98662"/>
<feComposite in2="hardAlpha" operator="arithmetic" k2="-1" k3="1"/>
<feColorMatrix type="matrix" values="0 0 0 0 1 0 0 0 0 1 0 0 0 0 1 0 0 0 1 0"/>
<feBlend mode="normal" in2="shape" result="effect1_innerShadow_108_177"/>
</filter>
</defs>
</svg>
